<svg xmlns="http://www.w3.org/2000/svg" width="12.852" height="13.978" viewBox="0, 0, 12.852, 13.978"><g fill="#FFF"><path d="M11.291 4.601h-2.6a.742.742 0 0 0-.742.737c0 .405.334.737.742.737h2.6c.037 0 .074.037.074.055v6.319c0 .037-.037.055-.074.055H1.56c-.037 0-.074-.037-.074-.056V6.13c0-.036.037-.055.074-.055h2.228a.742.742 0 0 0 .743-.737.742.742 0 0 0-.743-.737H1.56C.705 4.601 0 5.283 0 6.13v6.319c0 .848.706 1.529 1.56 1.529h9.731c.854 0 1.559-.681 1.559-1.529l.002-6.319c0-.847-.706-1.529-1.561-1.529z"/><path d="M4.049 3.385L5.59 2.206V9.74a.743.743 0 0 0 1.486 0V2.206l1.541 1.161.019.019a.771.771 0 0 0 .428.129.725.725 0 0 0 .594-.295.748.748 0 0 0-.149-1.032L6.704.088h-.037L6.63.051h-.018L6.593.033h-.056C6.518.014 6.481.014 6.425.014a.517.517 0 0 0-.241 0c-.056 0-.093.019-.13.019-.037 0-.074.018-.112.036h-.037L3.157 2.207a.731.731 0 0 0-.149 1.032.762.762 0 0 0 1.041.146z"/></g></svg>