<svg xmlns="http://www.w3.org/2000/svg" width="24" height="24" viewBox="0, 0, 24, 24"><path d="M13.309 24C7.405 24 2.618 18.627 2.618 12S7.405 0 13.309 0C19.214 0 24 5.373 24 12s-4.786 12-10.691 12" fill="#FCC62B"/><path d="M2.618 12C2.618 5.871 6.713.818 12 .093A9.603 9.603 0 0 0 10.691 0C4.786 0 0 5.373 0 12s4.786 12 10.691 12c.443 0 .88-.034 1.309-.093C6.713 23.182 2.618 18.129 2.618 12" fill="#E5AF17"/><path d="M2.618 12.429H0c.009.288.026.575.052.857h2.62a13.404 13.404 0 0 1-.054-.857M2.717 10.286H.101c-.036.283-.062.569-.08.857h2.618c.018-.288.042-.574.078-.857M2.858 14.572H.24c.056.29.121.575.196.857h2.618c-.075-.281-.14-.567-.196-.857M3.468 16.715H.848c.112.292.235.577.366.857h2.619c-.131-.28-.254-.565-.365-.857M3.174 8.143H.558C.473 8.425.394 8.71.327 9h2.622c.066-.289.14-.576.225-.857M4.042 6H1.424c-.144.28-.279.565-.403.858h2.62c.124-.293.257-.579.401-.858M5.823 3.429H3.202c-.248.273-.484.559-.708.857h2.621c.223-.298.46-.584.708-.857M8.491 1.286H5.867c-.446.253-.874.54-1.281.857h2.622a10.69 10.69 0 0 1 1.283-.857M4.809 19.286h-2.62c.203.297.417.583.643.857h2.621a11.683 11.683 0 0 1-.644-.857M4.073 21.429c.351.31.717.598 1.101.857h2.625c-.386-.26-.757-.545-1.109-.857H4.073" fill="#CE9811"/><path d="M13.346 21.653h-.037a7.95 7.95 0 0 1-.914-.053.43.43 0 0 1-.381-.477.432.432 0 0 1 .485-.374c.266.031.539.047.81.047.241 0 .455.192.455.429a.417.417 0 0 1-.418.428zm2.538-.461a.436.436 0 0 1-.408-.278.426.426 0 0 1 .254-.552c.252-.094.503-.203.744-.325a.44.44 0 0 1 .588.186c.11.21.026.468-.189.576-.271.138-.552.26-.835.365a.44.44 0 0 1-.154.028zm-5.906-.328a.432.432 0 0 1-.197-.047 8.224 8.224 0 0 1-.79-.449.424.424 0 0 1-.126-.593.443.443 0 0 1 .605-.123c.227.146.465.281.706.401.215.107.3.365.191.576a.436.436 0 0 1-.389.235zm8.775-1.525a.438.438 0 0 1-.307-.124.423.423 0 0 1-.003-.606c.19-.189.375-.391.549-.601a.44.44 0 0 1 .613-.062c.188.15.216.42.064.603a9.342 9.342 0 0 1-.606.663.436.436 0 0 1-.31.127zm-11.441-.603a.439.439 0 0 1-.338-.157 9.723 9.723 0 0 1-.54-.713.424.424 0 0 1 .117-.595.442.442 0 0 1 .606.115c.156.227.321.445.492.65a.422.422 0 0 1-.061.603.433.433 0 0 1-.276.097zm13.359-2.202a.453.453 0 0 1-.175-.036.425.425 0 0 1-.225-.564c.109-.247.209-.502.297-.758a.44.44 0 0 1 .553-.27.426.426 0 0 1 .274.543c-.096.28-.205.558-.324.827a.437.437 0 0 1-.4.258zm-15.022-.757a.434.434 0 0 1-.413-.291 10.096 10.096 0 0 1-.255-.849.429.429 0 0 1 .318-.52.437.437 0 0 1 .529.313c.066.261.145.524.234.78a.426.426 0 0 1-.272.543.44.44 0 0 1-.141.024zm15.847-2.528l-.034-.001a.43.43 0 0 1-.402-.46c.021-.259.031-.524.031-.788 0-.237.195-.443.436-.443s.436.178.436.415V12c0 .286-.01.574-.033.854a.432.432 0 0 1-.434.395zm-16.405-.816a.428.428 0 0 1-.436-.424V12c0-.289.011-.583.035-.873a.437.437 0 0 1 .87.068 9.847 9.847 0 0 0-.033.805.436.436 0 0 1-.436.433zm16.118-2.556a.434.434 0 0 1-.423-.324 9.19 9.19 0 0 0-.236-.779.428.428 0 0 1 .271-.545.436.436 0 0 1 .555.266c.097.279.183.565.256.85a.427.427 0 0 1-.423.532zM5.643 9.099a.451.451 0 0 1-.14-.023.427.427 0 0 1-.274-.544c.097-.28.207-.558.327-.827a.438.438 0 0 1 .574-.22.426.426 0 0 1 .225.565 9.25 9.25 0 0 0-.299.758.437.437 0 0 1-.413.291zm14.169-2.312a.441.441 0 0 1-.362-.188 8.375 8.375 0 0 0-.493-.648.425.425 0 0 1 .06-.604.442.442 0 0 1 .614.059c.191.228.373.468.542.712a.425.425 0 0 1-.117.596.443.443 0 0 1-.244.073zM7.299 6.136a.434.434 0 0 1-.275-.097.423.423 0 0 1-.062-.603 9.31 9.31 0 0 1 .606-.661.442.442 0 0 1 .617-.003.422.422 0 0 1 .003.606 8.285 8.285 0 0 0-.55.601.441.441 0 0 1-.339.157zm10.073-1.727a.442.442 0 0 1-.238-.07 7.612 7.612 0 0 0-.707-.4.425.425 0 0 1-.193-.576.438.438 0 0 1 .586-.189c.269.133.535.283.79.447.202.129.26.395.128.593a.44.44 0 0 1-.366.195zm-7.411-.407a.436.436 0 0 1-.389-.234.425.425 0 0 1 .19-.576c.273-.137.554-.259.837-.363a.437.437 0 0 1 .561.252.426.426 0 0 1-.255.551 7.087 7.087 0 0 0-.746.323.437.437 0 0 1-.198.047zm4.192-.75a.436.436 0 0 1-.051-.003 7 7 0 0 0-.793-.045.44.44 0 0 1-.445-.429c0-.236.185-.428.426-.428h.019c.297 0 .598.017.894.051a.43.43 0 0 1 .383.475.433.433 0 0 1-.433.379z" fill="#FFD947"/><path d="M17.565 8.808c-.122-1.529-1.318-2.042-2.696-2.188l-.001-2.12h-.858v2.065l-.853.014V4.5h-.832v2.12c-.23.006-.798.012-1.02.012l-1.473-.008v1.379s1.102-.018 1.09 0c.432 0 .574.304.613.566l.001 2.416.113.009h-.113v3.385c-.019.165-.099.428-.401.429.014.015-1.09 0-1.09 0l-.213 1.541h1.389l1.103.008.001 2.146h.805l-.001-2.123c.295.008.576.012.854.011v2.112h.937v-2.142c1.795-.124 3.104-.671 3.26-2.71.127-1.643-.512-2.375-1.531-2.671.618-.382 1.007-1.053.916-2.172zm-1.99.578c0 1.458-1.894 1.289-2.497 1.289V8.096c.603 0 2.497-.232 2.497 1.29zm-2.497 5.43v-2.842c.724 0 2.993-.251 2.993 1.421 0 1.604-2.269 1.421-2.993 1.421z" fill="#CE9600"/></svg>