<svg xmlns="http://www.w3.org/2000/svg" width="121" height="25" viewBox="0, 0, 121, 25"><path d="M32 6.801h1.904a.85.85 0 0 1 .504.14.763.763 0 0 1 .28.371l1.974 5.46c.089.238.178.497.269.777.091.28.177.574.256.882.065-.308.141-.602.227-.882.087-.28.172-.539.256-.777l1.96-5.46a.798.798 0 0 1 .273-.354.785.785 0 0 1 .497-.157h1.918L38.23 17h-2.142L32 6.801zM55.25 17h-1.834a.851.851 0 0 1-.507-.143.739.739 0 0 1-.277-.368l-.602-1.778h-3.878l-.602 1.778a.79.79 0 0 1-.273.353.78.78 0 0 1-.497.158h-1.848L48.88 6.801h2.422L55.25 17zm-6.552-3.899h2.786l-.938-2.793a88.125 88.125 0 0 1-.213-.627c-.082-.24-.163-.5-.242-.78-.075.285-.152.548-.231.791-.079.243-.154.453-.224.63l-.938 2.779zm12.624-6.3c.103 0 .189.005.259.014.07.009.133.027.189.052.056.026.11.062.161.109.051.047.11.11.175.189l4.844 6.125a11.92 11.92 0 0 1-.056-1.092V6.801h2.086V17h-1.232c-.182 0-.336-.028-.462-.084a.994.994 0 0 1-.364-.308l-4.809-6.076c.014.177.026.351.035.522.009.17.014.33.014.479V17h-2.086V6.801h1.246zm20.744 0v1.876h-2.87V17H76.83V8.677h-2.87V6.801h8.106zM95.418 17h-1.834a.857.857 0 0 1-.508-.143.742.742 0 0 1-.276-.368l-.602-1.778H88.32l-.602 1.778a.79.79 0 0 1-.273.353.78.78 0 0 1-.497.158H85.1l3.948-10.199h2.422L95.418 17zm-6.552-3.899h2.786l-.938-2.793-.214-.627c-.081-.24-.162-.5-.241-.78-.075.285-.152.548-.231.791-.079.243-.154.453-.224.63l-.938 2.779zm15.76 2.191c.327 0 .616-.028.868-.084a4.28 4.28 0 0 0 .714-.224v-1.547H105.2a.491.491 0 0 1-.35-.119.396.396 0 0 1-.126-.301v-1.302h3.626v4.305a5.396 5.396 0 0 1-.815.494c-.283.137-.584.25-.903.339-.32.089-.661.154-1.023.196-.361.042-.75.063-1.165.063a5.342 5.342 0 0 1-2.072-.396 5.02 5.02 0 0 1-1.649-1.092 5.005 5.005 0 0 1-1.091-1.652 5.364 5.364 0 0 1-.396-2.075c0-.761.126-1.459.378-2.097a4.719 4.719 0 0 1 1.081-1.648 4.911 4.911 0 0 1 1.701-1.078c.666-.257 1.409-.385 2.23-.385.425 0 .824.035 1.197.105.373.07.717.166 1.032.287a4.693 4.693 0 0 1 1.565.98l-.686 1.043a.76.76 0 0 1-.235.231.554.554 0 0 1-.297.084.822.822 0 0 1-.434-.14 7.728 7.728 0 0 0-.528-.291 3.26 3.26 0 0 0-1.054-.311 5.423 5.423 0 0 0-.644-.035 2.93 2.93 0 0 0-1.197.235 2.559 2.559 0 0 0-.907.661 2.997 2.997 0 0 0-.577 1.025 4.15 4.15 0 0 0-.203 1.334c0 .541.075 1.022.224 1.442a3.1 3.1 0 0 0 .619 1.064c.264.289.577.51.938.661.362.152.758.228 1.187.228zm15.732-8.491v1.82h-4.186v2.38h3.206v1.75h-3.206v2.429h4.186V17h-6.566V6.801h6.566z" fill="#FFF"/><path d="M12 .003c6.628 0 12 5.427 12 12.121 0 6.694-5.372 12.121-12 12.121S0 18.818 0 12.124C0 5.43 5.372.003 12 .003z" fill="#E4E7E7"/><path d="M12 3.79c4.556 0 8.25 3.731 8.25 8.333s-3.694 8.334-8.25 8.334-8.25-3.732-8.25-8.334C3.75 7.521 7.444 3.79 12 3.79z" fill="#64C071"/><path d="M12 7.578c2.485 0 4.5 2.035 4.5 4.545 0 2.511-2.015 4.546-4.5 4.546s-4.5-2.035-4.5-4.546c0-2.51 2.015-4.545 4.5-4.545z" fill="#0C272C"/><path d="M15.375 7.578c1.036 0 1.875.848 1.875 1.894a1.884 1.884 0 0 1-1.875 1.894A1.884 1.884 0 0 1 13.5 9.472c0-1.046.839-1.894 1.875-1.894z" fill="#D4EDF6"/><path d="M16.373 11.07a4.542 4.542 0 0 0-2.284-2.97c-.361.345-.589.83-.589 1.372 0 1.046.839 1.894 1.875 1.894.368 0 .709-.111.998-.296z" fill="#D6DBDE"/><path d="M12.75 19.699c-4.556 0-8.25-3.732-8.25-8.333 0-2.108.782-4.028 2.06-5.496a8.344 8.344 0 0 0-2.81 6.253c0 4.602 3.694 8.334 8.25 8.334 2.469 0 4.679-1.102 6.191-2.838a8.165 8.165 0 0 1-5.441 2.08z" fill="#39AF45"/></svg>