<svg width="134" height="39" viewBox="0 0 134 39" xmlns="http://www.w3.org/2000/svg"><title>Page 1</title><path d="M12.412 31.028c3.321 2.91 6.761 5.973 10.784 7.855 1.272.595 2.518-1.221 1.645-2.248-3.023-3.544-6.826-6.396-10.16-9.636a75.655 75.655 0 0 1-4.313-4.58c2.132.304 4.264.578 6.4.675 3.826.176 7.656.167 11.487.198 8.028.062 16.057.12 24.08.176 7.779.058 15.558.11 23.335.049 3.69-.031 7.397-.097 11.082-.26 4.493-.203 42.407 1.838 46.522-.163.903-.441 1.03-3.043 0-3.594-3.804-2.028-41.13-2.48-45.346-2.679-3.857-.18-7.73-.229-11.59-.282-7.955-.106-15.922-.022-23.876.035l-23.125.172c-6.931.053-13.595.494-20.409 1.221a56.539 56.539 0 0 0 5.537-4.707c2.904-2.795 6.094-6.057 7.27-9.998.579-1.943-1.808-4.006-3.62-2.997C14.833 2.1 12.504 5.506 9.89 8.173 7.165 10.95 4.19 13.52 1.233 16.037c-1.088.93-1.811 3.151-.614 4.324 3.791 3.716 7.806 7.172 11.793 10.667z" fill="#103137" fill-rule="evenodd" opacity=".5"/></svg>