<svg width="24" height="25" viewBox="0 0 24 25" xmlns="http://www.w3.org/2000/svg"><g fill-rule="nonzero" fill="none"><path d="M12 .003c6.628 0 12 5.427 12 12.121 0 6.694-5.372 12.121-12 12.121S0 18.818 0 12.125C0 5.43 5.372.002 12 .002z" fill="#E4E7E7"/><path d="M12 3.79c4.556 0 8.25 3.731 8.25 8.333s-3.694 8.334-8.25 8.334-8.25-3.732-8.25-8.334C3.75 7.521 7.444 3.79 12 3.79z" fill="#64C071"/><path d="M12 7.578c2.485 0 4.5 2.035 4.5 4.545 0 2.511-2.015 4.546-4.5 4.546s-4.5-2.035-4.5-4.546c0-2.51 2.015-4.545 4.5-4.545z" fill="#0C272C"/><path d="M15.375 7.578c1.036 0 1.875.848 1.875 1.894 0 1.046-.84 1.894-1.875 1.894A1.884 1.884 0 0 1 13.5 9.472c0-1.046.84-1.894 1.875-1.894z" fill="#D4EDF6"/><path d="M16.373 11.07A4.54 4.54 0 0 0 14.09 8.1c-.361.345-.589.83-.589 1.372 0 1.046.84 1.894 1.875 1.894.368 0 .709-.11.998-.296z" fill="#D6DBDE"/><path d="M12.75 19.7c-4.556 0-8.25-3.733-8.25-8.334A8.34 8.34 0 0 1 6.56 5.87a8.34 8.34 0 0 0-2.81 6.253c0 4.602 3.694 8.334 8.25 8.334 2.469 0 4.678-1.102 6.19-2.838a8.163 8.163 0 0 1-5.44 2.08z" fill="#39AF45"/></g></svg>