<svg xmlns="http://www.w3.org/2000/svg" width="13" height="13" viewBox="0, 0, 13, 13"><path d="M12.896 6.5c0 3.59-2.887 6.5-6.448 6.5C2.887 13 0 10.09 0 6.5S2.887 0 6.448 0c3.561 0 6.448 2.91 6.448 6.5z" fill="#39AF45"/><path d="M12.296 6.5c0 3.258-2.619 5.9-5.848 5.9C3.218 12.4.6 9.758.6 6.5.6 3.242 3.218.6 6.448.6c3.229 0 5.848 2.642 5.848 5.9z" stroke="#63BF70" stroke-width="1.2" fill="none"/><path d="M6.716 8.385a1.94 1.94 0 0 0 .788-.155v-.777h-.502a.242.242 0 0 1-.174-.06.2.2 0 0 1-.063-.151v-.654h1.807V8.75a2.597 2.597 0 0 1-.856.419c-.16.044-.33.077-.51.098-.18.022-.374.032-.581.032-.372 0-.716-.066-1.032-.199a2.504 2.504 0 0 1-.822-.548 2.534 2.534 0 0 1-.544-.83 2.728 2.728 0 0 1-.197-1.043c0-.382.063-.733.188-1.053.126-.32.305-.596.539-.828a2.44 2.44 0 0 1 .848-.542 3.04 3.04 0 0 1 1.111-.194c.212 0 .411.018.597.053s.357.083.514.144a2.382 2.382 0 0 1 .78.493l-.342.524a.391.391 0 0 1-.117.116.276.276 0 0 1-.148.042.402.402 0 0 1-.216-.07 3.307 3.307 0 0 0-.264-.146 1.658 1.658 0 0 0-.525-.157 2.805 2.805 0 0 0-.321-.017c-.221 0-.42.039-.596.118a1.267 1.267 0 0 0-.452.332 1.51 1.51 0 0 0-.288.515 2.108 2.108 0 0 0-.101.67c0 .272.037.513.112.724.074.212.177.39.308.535.132.145.287.256.468.332.18.077.377.115.591.115z" fill="#FFF"/></svg>