<svg width="18" height="16" viewBox="0 0 18 16" xmlns="http://www.w3.org/2000/svg"><title>Page 1</title><path d="M9.003 16a8.039 8.039 0 0 0 7.48-5.166.586.586 0 1 0-1.096-.416 6.862 6.862 0 0 1-6.384 4.41c-3.305 0-6.066-2.361-6.692-5.486l.14.113a.586.586 0 1 0 .736-.912l-1.175-.95a.58.58 0 0 0-.262-.155l-.006-.002a.581.581 0 0 0-.129-.02l-.022-.002c-.01 0-.019.002-.028.003a.697.697 0 0 0-.08.008l-.02.004a.577.577 0 0 0-.335.202l-1 1.236a.584.584 0 0 0 .087.824c.252.204.62.165.824-.087l.105-.129C1.839 13.183 5.097 16 9.003 16zm7.044-7.544c.003.003.006.003.01.006a.548.548 0 0 0 .072.047l.03.017a.483.483 0 0 0 .113.04.744.744 0 0 0 .118.016c.007.001.015.003.023.003.01 0 .019-.003.028-.003a.5.5 0 0 0 .112-.017.535.535 0 0 0 .068-.02l.036-.015a.858.858 0 0 0 .07-.037l.026-.018a.594.594 0 0 0 .064-.053l.02-.02c.011-.011.023-.021.034-.034l.998-1.236a.586.586 0 1 0-.91-.737l-.1.123C16.163 2.813 12.907 0 9.004 0a8.03 8.03 0 0 0-7.498 5.215.586.586 0 0 0 1.098.408 6.854 6.854 0 0 1 6.4-4.45c3.305 0 6.069 2.363 6.692 5.49l-.147-.118a.586.586 0 0 0-.736.912l1.235.999z" fill="#FFF" fill-rule="evenodd"/></svg>